{
  "version": "1.1.6",
  "modules": [
    {
      "id": 1,
      "plugin": "Core",
      "version": "1.1.6",
      "model": "AudioInterface",
      "params": [],
      "leftModuleId": 2,
      "rightModuleId": 33,
      "data": {
        "audio": {
          "driver": 7,
          "deviceName": "ASIO4ALL v2",
          "offset": 0,
          "maxChannels": 8,
          "sampleRate": 44100,
          "blockSize": 256
        }
      },
      "pos": [
        85,
        1
      ]
    },
    {
      "id": 2,
      "plugin": "Fundamental",
      "version": "1.4.0",
      "model": "VCMixer",
      "params": [
        {
          "id": 0,
          "value": 1.0
        },
        {
          "id": 1,
          "value": 1.0
        },
        {
          "id": 2,
          "value": 1.0
        },
        {
          "id": 3,
          "value": 1.0
        },
        {
          "id": 4,
          "value": 1.0
        }
      ],
      "leftModuleId": 7,
      "rightModuleId": 1,
      "pos": [
        75,
        1
      ]
    },
    {
      "id": 3,
      "plugin": "Fundamental",
      "version": "1.4.0",
      "model": "VCO",
      "params": [
        {
          "id": 0,
          "value": 1.0
        },
        {
          "id": 1,
          "value": 1.0
        },
        {
          "id": 2,
          "value": -23.6520081
        },
        {
          "id": 3,
          "value": -0.0409999825
        },
        {
          "id": 4,
          "value": 0.274500042
        },
        {
          "id": 5,
          "value": 0.290769994
        },
        {
          "id": 6,
          "value": 0.289500177
        }
      ],
      "leftModuleId": 24,
      "rightModuleId": 22,
      "pos": [
        32,
        1
      ]
    },
    {
      "id": 7,
      "plugin": "Fundamental",
      "version": "1.4.0",
      "model": "Scope",
      "params": [
        {
          "id": 0,
          "value": 0.0
        },
        {
          "id": 1,
          "value": 0.0
        },
        {
          "id": 2,
          "value": 0.0
        },
        {
          "id": 3,
          "value": 0.0
        },
        {
          "id": 4,
          "value": 14.0
        },
        {
          "id": 5,
          "value": 0.0
        },
        {
          "id": 6,
          "value": 0.0
        },
        {
          "id": 7,
          "value": 0.0
        }
      ],
      "rightModuleId": 2,
      "data": {
        "lissajous": 0,
        "external": 0
      },
      "pos": [
        62,
        1
      ]
    },
    {
      "id": 17,
      "plugin": "Bogaudio",
      "version": "1.1.37",
      "model": "Bogaudio-RGate",
      "params": [
        {
          "id": 0,
          "value": 0.5
        },
        {
          "id": 1,
          "value": 0.238499939
        },
        {
          "id": 2,
          "value": 0.0
        }
      ],
      "rightModuleId": 18,
      "data": {
        "range_offset": 1.0,
        "range_scale": 5.0,
        "reset_mode": 0,
        "initial_clock_seconds": 0.5,
        "poly_input": 4
      },
      "pos": [
        0,
        2
      ]
    },
    {
      "id": 18,
      "plugin": "Bogaudio",
      "version": "1.1.37",
      "model": "Bogaudio-AddrSeq",
      "params": [
        {
          "id": 0,
          "value": 8.0
        },
        {
          "id": 1,
          "value": 1.0
        },
        {
          "id": 2,
          "value": 0.0
        },
        {
          "id": 3,
          "value": -0.16200003
        },
        {
          "id": 4,
          "value": 0.260999978
        },
        {
          "id": 5,
          "value": 0.128999978
        },
        {
          "id": 6,
          "value": 0.0
        },
        {
          "id": 7,
          "value": 0.219000101
        },
        {
          "id": 8,
          "value": -0.267000139
        },
        {
          "id": 9,
          "value": 0.0
        },
        {
          "id": 10,
          "value": 0.0
        }
      ],
      "leftModuleId": 17,
      "data": {
        "poly_input": 0,
        "select_on_clock": false,
        "triggered_select": false,
        "reverse_on_negative_clock": false,
        "range_offset": 0.0,
        "range_scale": 10.0
      },
      "pos": [
        5,
        2
      ]
    },
    {
      "id": 19,
      "plugin": "Fundamental",
      "version": "1.4.0",
      "model": "ADSR",
      "params": [
        {
          "id": 0,
          "value": 0.346999913
        },
        {
          "id": 1,
          "value": 0.702500284
        },
        {
          "id": 2,
          "value": 0.695000112
        },
        {
          "id": 3,
          "value": 0.659000278
        }
      ],
      "leftModuleId": 22,
      "pos": [
        50,
        1
      ]
    },
    {
      "id": 20,
      "plugin": "Fundamental",
      "version": "1.4.0",
      "model": "ADSR",
      "params": [
        {
          "id": 0,
          "value": 0.147500038
        },
        {
          "id": 1,
          "value": 0.315499783
        },
        {
          "id": 2,
          "value": 0.826999962
        },
        {
          "id": 3,
          "value": 0.705499947
        }
      ],
      "leftModuleId": 23,
      "pos": [
        50,
        2
      ]
    },
    {
      "id": 21,
      "plugin": "Fundamental",
      "version": "1.4.0",
      "model": "VCO",
      "params": [
        {
          "id": 0,
          "value": 1.0
        },
        {
          "id": 1,
          "value": 1.0
        },
        {
          "id": 2,
          "value": 0.0
        },
        {
          "id": 3,
          "value": 0.0
        },
        {
          "id": 4,
          "value": 0.0
        },
        {
          "id": 5,
          "value": 0.5
        },
        {
          "id": 6,
          "value": 0.0
        }
      ],
      "leftModuleId": 25,
      "rightModuleId": 23,
      "pos": [
        32,
        2
      ]
    },
    {
      "id": 22,
      "plugin": "Fundamental",
      "version": "1.4.0",
      "model": "VCF",
      "params": [
        {
          "id": 0,
          "value": 0.5
        },
        {
          "id": 1,
          "value": 0.5
        },
        {
          "id": 2,
          "value": 0.0
        },
        {
          "id": 3,
          "value": 0.888000488
        },
        {
          "id": 4,
          "value": 0.0
        }
      ],
      "leftModuleId": 3,
      "rightModuleId": 19,
      "pos": [
        42,
        1
      ]
    },
    {
      "id": 23,
      "plugin": "Fundamental",
      "version": "1.4.0",
      "model": "VCF",
      "params": [
        {
          "id": 0,
          "value": 0.0
        },
        {
          "id": 1,
          "value": 0.5
        },
        {
          "id": 2,
          "value": 0.236999944
        },
        {
          "id": 3,
          "value": 0.891000032
        },
        {
          "id": 4,
          "value": 0.0
        }
      ],
      "leftModuleId": 21,
      "rightModuleId": 20,
      "pos": [
        42,
        2
      ]
    },
    {
      "id": 24,
      "plugin": "JW-Modules",
      "version": "1.0.24",
      "model": "Quantizer",
      "params": [
        {
          "id": 0,
          "value": 0.0
        },
        {
          "id": 1,
          "value": 9.0
        },
        {
          "id": 2,
          "value": 0.0
        }
      ],
      "rightModuleId": 3,
      "data": {},
      "pos": [
        28,
        1
      ]
    },
    {
      "id": 25,
      "plugin": "JW-Modules",
      "version": "1.0.24",
      "model": "Quantizer",
      "params": [
        {
          "id": 0,
          "value": 0.0
        },
        {
          "id": 1,
          "value": 9.0
        },
        {
          "id": 2,
          "value": 0.0
        }
      ],
      "rightModuleId": 21,
      "data": {},
      "pos": [
        28,
        2
      ]
    },
    {
      "id": 26,
      "plugin": "Fundamental",
      "version": "1.4.0",
      "model": "SEQ3",
      "params": [
        {
          "id": 0,
          "value": 2.0
        },
        {
          "id": 1,
          "value": 0.0
        },
        {
          "id": 2,
          "value": 0.0
        },
        {
          "id": 3,
          "value": 8.0
        },
        {
          "id": 4,
          "value": 3.46500039
        },
        {
          "id": 5,
          "value": 0.0
        },
        {
          "id": 6,
          "value": 0.0
        },
        {
          "id": 7,
          "value": 3.79500031
        },
        {
          "id": 8,
          "value": 0.0
        },
        {
          "id": 9,
          "value": 1.54500008
        },
        {
          "id": 10,
          "value": 0.0
        },
        {
          "id": 11,
          "value": 3.41999936
        },
        {
          "id": 12,
          "value": 0.0
        },
        {
          "id": 13,
          "value": 1.68000007
        },
        {
          "id": 14,
          "value": 0.0
        },
        {
          "id": 15,
          "value": 1.22999954
        },
        {
          "id": 16,
          "value": 0.0
        },
        {
          "id": 17,
          "value": 2.41500187
        },
        {
          "id": 18,
          "value": 0.0
        },
        {
          "id": 19,
          "value": 0.0
        },
        {
          "id": 20,
          "value": 0.0
        },
        {
          "id": 21,
          "value": 0.734999776
        },
        {
          "id": 22,
          "value": 0.0
        },
        {
          "id": 23,
          "value": 1.90499985
        },
        {
          "id": 24,
          "value": 0.0
        },
        {
          "id": 25,
          "value": 0.0
        },
        {
          "id": 26,
          "value": 0.809999824
        },
        {
          "id": 27,
          "value": 0.0
        },
        {
          "id": 28,
          "value": 0.0
        },
        {
          "id": 29,
          "value": 0.0
        },
        {
          "id": 30,
          "value": 0.0
        },
        {
          "id": 31,
          "value": 0.0
        },
        {
          "id": 32,
          "value": 0.0
        },
        {
          "id": 33,
          "value": 0.0
        },
        {
          "id": 34,
          "value": 0.0
        },
        {
          "id": 35,
          "value": 0.0
        }
      ],
      "data": {
        "running": false,
        "gates": [
          1,
          1,
          1,
          1,
          1,
          1,
          1,
          1
        ]
      },
      "pos": [
        0,
        1
      ]
    },
    {
      "id": 27,
      "plugin": "AudibleInstruments",
      "version": "1.5.0",
      "model": "Branches",
      "params": [
        {
          "id": 0,
          "value": 0.246499822
        },
        {
          "id": 1,
          "value": 0.115500011
        },
        {
          "id": 2,
          "value": 0.0
        },
        {
          "id": 3,
          "value": 0.0
        }
      ],
      "data": {
        "modes": [
          false,
          false
        ]
      },
      "pos": [
        13,
        2
      ]
    },
    {
      "id": 28,
      "plugin": "Fundamental",
      "version": "1.4.0",
      "model": "SequentialSwitch1",
      "params": [
        {
          "id": 0,
          "value": 1.0
        }
      ],
      "pos": [
        20,
        2
      ]
    },
    {
      "id": 29,
      "plugin": "JW-Modules",
      "version": "1.0.24",
      "model": "Quantizer",
      "params": [
        {
          "id": 0,
          "value": 0.0
        },
        {
          "id": 1,
          "value": 9.0
        },
        {
          "id": 2,
          "value": 0.0
        }
      ],
      "rightModuleId": 30,
      "data": {},
      "pos": [
        28,
        0
      ]
    },
    {
      "id": 30,
      "plugin": "Fundamental",
      "version": "1.4.0",
      "model": "VCO",
      "params": [
        {
          "id": 0,
          "value": 1.0
        },
        {
          "id": 1,
          "value": 1.0
        },
        {
          "id": 2,
          "value": -9.0719986
        },
        {
          "id": 3,
          "value": 0.0
        },
        {
          "id": 4,
          "value": 0.427500486
        },
        {
          "id": 5,
          "value": 0.329480052
        },
        {
          "id": 6,
          "value": 0.511500239
        }
      ],
      "leftModuleId": 29,
      "rightModuleId": 31,
      "pos": [
        32,
        0
      ]
    },
    {
      "id": 31,
      "plugin": "Fundamental",
      "version": "1.4.0",
      "model": "VCF",
      "params": [
        {
          "id": 0,
          "value": 0.282499969
        },
        {
          "id": 1,
          "value": 0.5
        },
        {
          "id": 2,
          "value": 0.0
        },
        {
          "id": 3,
          "value": 0.882000208
        },
        {
          "id": 4,
          "value": 0.0
        }
      ],
      "leftModuleId": 30,
      "rightModuleId": 32,
      "pos": [
        42,
        0
      ]
    },
    {
      "id": 32,
      "plugin": "Fundamental",
      "version": "1.4.0",
      "model": "ADSR",
      "params": [
        {
          "id": 0,
          "value": 0.135499611
        },
        {
          "id": 1,
          "value": 0.30700013
        },
        {
          "id": 2,
          "value": 0.720499754
        },
        {
          "id": 3,
          "value": 0.653000057
        }
      ],
      "leftModuleId": 31,
      "pos": [
        50,
        0
      ]
    },
    {
      "id": 33,
      "plugin": "VCV-Recorder",
      "version": "1.1.0",
      "model": "Recorder",
      "params": [
        {
          "id": 0,
          "value": 1.22499907
        },
        {
          "id": 1,
          "value": 0.0
        }
      ],
      "leftModuleId": 1,
      "data": {
        "format": "wav",
        "path": "C:\\Users\\fmsin.DESKTOP-7SGA9EO/second sound assignment.wav",
        "incrementPath": true,
        "sampleRate": 44100,
        "depth": 16,
        "bitRate": 256000,
        "videoBitRate": 2048000
      },
      "pos": [
        95,
        1
      ]
    }
  ],
  "cables": [
    {
      "id": 58,
      "outputModuleId": 2,
      "outputId": 0,
      "inputModuleId": 1,
      "inputId": 0,
      "color": "#0986ad"
    },
    {
      "id": 59,
      "outputModuleId": 2,
      "outputId": 0,
      "inputModuleId": 1,
      "inputId": 1,
      "color": "#c9b70e"
    },
    {
      "id": 64,
      "outputModuleId": 2,
      "outputId": 1,
      "inputModuleId": 7,
      "inputId": 0,
      "color": "#c9b70e"
    },
    {
      "id": 77,
      "outputModuleId": 26,
      "outputId": 0,
      "inputModuleId": 17,
      "inputId": 4,
      "color": "#c9b70e"
    },
    {
      "id": 78,
      "outputModuleId": 26,
      "outputId": 0,
      "inputModuleId": 27,
      "inputId": 1,
      "color": "#0c8e15"
    },
    {
      "id": 79,
      "outputModuleId": 26,
      "outputId": 0,
      "inputModuleId": 27,
      "inputId": 0,
      "color": "#c91847"
    },
    {
      "id": 80,
      "outputModuleId": 26,
      "outputId": 1,
      "inputModuleId": 24,
      "inputId": 2,
      "color": "#0986ad"
    },
    {
      "id": 81,
      "outputModuleId": 26,
      "outputId": 2,
      "inputModuleId": 25,
      "inputId": 2,
      "color": "#c9b70e"
    },
    {
      "id": 82,
      "outputModuleId": 24,
      "outputId": 0,
      "inputModuleId": 3,
      "inputId": 0,
      "color": "#0c8e15"
    },
    {
      "id": 83,
      "outputModuleId": 25,
      "outputId": 0,
      "inputModuleId": 21,
      "inputId": 0,
      "color": "#c91847"
    },
    {
      "id": 84,
      "outputModuleId": 17,
      "outputId": 0,
      "inputModuleId": 18,
      "inputId": 0,
      "color": "#0986ad"
    },
    {
      "id": 85,
      "outputModuleId": 27,
      "outputId": 0,
      "inputModuleId": 28,
      "inputId": 0,
      "color": "#c9b70e"
    },
    {
      "id": 86,
      "outputModuleId": 27,
      "outputId": 1,
      "inputModuleId": 28,
      "inputId": 2,
      "color": "#0c8e15"
    },
    {
      "id": 87,
      "outputModuleId": 28,
      "outputId": 0,
      "inputModuleId": 19,
      "inputId": 4,
      "color": "#c91847"
    },
    {
      "id": 88,
      "outputModuleId": 28,
      "outputId": 1,
      "inputModuleId": 20,
      "inputId": 4,
      "color": "#0986ad"
    },
    {
      "id": 89,
      "outputModuleId": 20,
      "outputId": 0,
      "inputModuleId": 23,
      "inputId": 0,
      "color": "#c9b70e"
    },
    {
      "id": 90,
      "outputModuleId": 21,
      "outputId": 3,
      "inputModuleId": 23,
      "inputId": 3,
      "color": "#0c8e15"
    },
    {
      "id": 91,
      "outputModuleId": 23,
      "outputId": 0,
      "inputModuleId": 2,
      "inputId": 2,
      "color": "#c91847"
    },
    {
      "id": 92,
      "outputModuleId": 20,
      "outputId": 0,
      "inputModuleId": 2,
      "inputId": 6,
      "color": "#0986ad"
    },
    {
      "id": 93,
      "outputModuleId": 19,
      "outputId": 0,
      "inputModuleId": 2,
      "inputId": 5,
      "color": "#c9b70e"
    },
    {
      "id": 94,
      "outputModuleId": 19,
      "outputId": 0,
      "inputModuleId": 22,
      "inputId": 0,
      "color": "#0c8e15"
    },
    {
      "id": 96,
      "outputModuleId": 22,
      "outputId": 0,
      "inputModuleId": 2,
      "inputId": 1,
      "color": "#0986ad"
    },
    {
      "id": 97,
      "outputModuleId": 26,
      "outputId": 3,
      "inputModuleId": 29,
      "inputId": 2,
      "color": "#c9b70e"
    },
    {
      "id": 98,
      "outputModuleId": 29,
      "outputId": 0,
      "inputModuleId": 30,
      "inputId": 0,
      "color": "#0c8e15"
    },
    {
      "id": 99,
      "outputModuleId": 30,
      "outputId": 2,
      "inputModuleId": 31,
      "inputId": 3,
      "color": "#c91847"
    },
    {
      "id": 100,
      "outputModuleId": 32,
      "outputId": 0,
      "inputModuleId": 31,
      "inputId": 0,
      "color": "#0986ad"
    },
    {
      "id": 101,
      "outputModuleId": 31,
      "outputId": 0,
      "inputModuleId": 2,
      "inputId": 3,
      "color": "#c9b70e"
    },
    {
      "id": 102,
      "outputModuleId": 28,
      "outputId": 2,
      "inputModuleId": 32,
      "inputId": 4,
      "color": "#0c8e15"
    },
    {
      "id": 103,
      "outputModuleId": 32,
      "outputId": 0,
      "inputModuleId": 2,
      "inputId": 7,
      "color": "#c91847"
    },
    {
      "id": 95,
      "outputModuleId": 3,
      "outputId": 0,
      "inputModuleId": 22,
      "inputId": 3,
      "color": "#c91847"
    },
    {
      "id": 104,
      "outputModuleId": 2,
      "outputId": 2,
      "inputModuleId": 7,
      "inputId": 1,
      "color": "#0986ad"
    },
    {
      "id": 105,
      "outputModuleId": 18,
      "outputId": 0,
      "inputModuleId": 25,
      "inputId": 3,
      "color": "#c9b70e"
    },
    {
      "id": 106,
      "outputModuleId": 18,
      "outputId": 0,
      "inputModuleId": 29,
      "inputId": 3,
      "color": "#0c8e15"
    },
    {
      "id": 109,
      "outputModuleId": 2,
      "outputId": 0,
      "inputModuleId": 33,
      "inputId": 2,
      "color": "#0c8e15"
    },
    {
      "id": 110,
      "outputModuleId": 2,
      "outputId": 0,
      "inputModuleId": 33,
      "inputId": 3,
      "color": "#c91847"
    }
  ]
}